# xmcd
#
# Track frame offsets:
#	150
#	11852
#	22592
#	36917
#	51747
#	65910
#	77160
#	89510
#	101097
#	114390
#
# Disc length: 1701 seconds
#
# Revision: 4
# Processed by: cddbd v1.5.2PL0 Copyright (c) Steve Scherf et al.
# Submitted via: audiograbber 1.83.01
#
DISCID=8606a30a
DTITLE=Crickets  - T-Shirt
DYEAR=1988
DGENRE=Oldies
TTITLE0=Your M-M-Memory Is T-T-Torturing Me 
TTITLE1=Rockin' Socks 
TTITLE2=The Weekend 
TTITLE3=Holly Would 
TTITLE4=T-Shirt 
TTITLE5=Forever In Mind 
TTITLE6=Cruise In It 
TTITLE7=Three Piece 
TTITLE8=Don't Tell Me That You Can't Come Out Tonight 
TTITLE9=That's All She Wrote 
EXTD=
EXTT0=
EXTT1=
EXTT2=
EXTT3=
EXTT4=
EXTT5=
EXTT6=
EXTT7=
EXTT8=
EXTT9=
PLAYORDER=
